<?xml version="1.0" encoding="utf-8" ?>
<svg baseProfile="full" height="500px" version="1.1" width="500px" xmlns="http://www.w3.org/2000/svg" xmlns:ev="http://www.w3.org/2001/xml-events" xmlns:xlink="http://www.w3.org/1999/xlink"><defs><clipPath id="border_clip"><rect height="500" width="500" x="0" y="0" /></clipPath></defs><polygon clip-path="url(#border_clip)" fill="#87ceeb" fill-rule="evenodd" points="250.5,250.5 100.5,400.5 100.5,400.5 100.5,250.5 125.5,250.5 125.5,175.5 175.5,175.5 175.5,350.5 200.5,350.5 200.5,100.5 350.5,100.5 350.5,175.5 400.5,175.5 400.5,275.5 300.5,275.5 300.5,400.5 100.5,400.5" stroke-width="0" /><polygon clip-path="url(#border_clip)" fill="#0000ff" fill-rule="evenodd" points="100.5,400.5 325.5,130.55 328.0,129.88012701892222 329.8301270189222,128.05 330.5,125.55000000000001 329.8301270189222,123.05000000000001 328.0,121.21987298107783 325.5,120.55000000000001 323.0,121.21987298107783 321.1698729810778,123.05000000000003 320.5,125.55000000000003 321.1698729810778,128.05 323.0,129.88012701892222 325.5,130.55000000000004" stroke-width="0" /><text clip-path="url(#border_clip)" fill="#ffffff" style="font-family: Verdana; font-size: 14.85; font-style: normal;" text-anchor="middle" x="324.5" y="126.50000000000001" /><polygon clip-path="url(#border_clip)" fill="#0000ff" fill-rule="evenodd" points="325.5,130.55000000000004 225.5,130.55 228.0,129.88012701892222 229.83012701892218,128.05 230.5,125.55000000000001 229.8301270189222,123.05000000000001 228.0,121.21987298107783 225.5,120.55000000000001 223.0,121.21987298107783 221.16987298107782,123.05000000000001 220.5,125.55000000000001 221.1698729810778,128.05 223.0,129.88012701892222 225.5,130.55" stroke-width="0" /><text clip-path="url(#border_clip)" fill="#ffffff" style="font-family: Verdana; font-size: 14.85; font-style: normal;" text-anchor="middle" x="224.5" y="126.50000000000001" /><polygon clip-path="url(#border_clip)" fill="#008000" fill-rule="evenodd" points="225.5,130.55 275.5,217.15254037844386 278.0,216.48266739736607 279.8301270189222,214.6525403784439 280.5,212.1525403784439 279.8301270189222,209.6525403784439 278.0,207.82241335952168 275.5,207.15254037844386 273.0,207.82241335952168 271.16987298107784,209.65254037844386 270.5,212.15254037844386 271.1698729810778,214.65254037844386 273.0,216.48266739736607 275.5,217.15254037844386" stroke-width="0" /><text clip-path="url(#border_clip)" fill="#ffffff" style="font-family: Verdana; font-size: 14.85; font-style: normal;" text-anchor="middle" x="274.5" y="213.10254037844385" /><polygon clip-path="url(#border_clip)" fill="black" fill-rule="evenodd" points="275.5,217.15254037844386 225.5,110.55000000000001 235.5,110.55000000000004 235.50000000000009,90.55000000000001 215.50000000000006,90.54999999999995 215.5,110.54999999999998 225.5,110.55000000000001" stroke-width="0" /><text clip-path="url(#border_clip)" fill="#ffffff" style="font-family: Verdana; font-size: 14.85; font-style: normal;" text-anchor="middle" x="224.5" y="106.50000000000001">1</text><polygon clip-path="url(#border_clip)" fill="black" fill-rule="evenodd" points="225.5,110.55000000000001 325.5,110.55000000000001 335.5,110.55000000000004 335.5000000000001,90.55000000000001 315.50000000000006,90.54999999999993 315.5,110.54999999999995 325.5,110.54999999999998" stroke-width="0" /><text clip-path="url(#border_clip)" fill="#ffffff" style="font-family: Verdana; font-size: 14.85; font-style: normal;" text-anchor="middle" x="324.5" y="106.50000000000001">2</text><polygon clip-path="url(#border_clip)" fill="black" fill-rule="evenodd" points="325.5,110.54999999999998 200.5,157.20063509461102 210.5,157.20063509461104 210.50000000000009,137.20063509461102 190.50000000000006,137.20063509461096 190.5,157.20063509461096 200.5,157.20063509461102" stroke-width="0" /><text clip-path="url(#border_clip)" fill="#ffffff" style="font-family: Verdana; font-size: 14.85; font-style: normal;" text-anchor="middle" x="199.5" y="153.150635094611">3</text><polygon clip-path="url(#border_clip)" fill="black" fill-rule="evenodd" points="200.5,157.20063509461102 350.5,157.20063509461102 360.5,157.20063509461104 360.5000000000001,137.20063509461102 340.5000000000001,137.20063509461096 340.5,157.20063509461096 350.5,157.20063509461102" stroke-width="0" /><text clip-path="url(#border_clip)" fill="#ffffff" style="font-family: Verdana; font-size: 14.85; font-style: normal;" text-anchor="middle" x="349.5" y="153.150635094611">4</text><polygon clip-path="url(#border_clip)" fill="black" fill-rule="evenodd" points="350.5,157.20063509461102 200.5,222.15254037844386 210.5,222.15254037844392 210.50000000000009,202.15254037844392 190.50000000000006,202.1525403784438 190.5,222.15254037844383 200.5,222.1525403784439" stroke-width="0" /><text clip-path="url(#border_clip)" fill="#ffffff" style="font-family: Verdana; font-size: 14.85; font-style: normal;" text-anchor="middle" x="199.5" y="218.10254037844385">5</text><polygon clip-path="url(#border_clip)" fill="black" fill-rule="evenodd" points="200.5,222.1525403784439 400.5,222.15254037844386 410.5,222.15254037844392 410.5000000000001,202.15254037844392 390.50000000000006,202.1525403784438 390.5,222.15254037844383 400.5,222.15254037844386" stroke-width="0" /><text clip-path="url(#border_clip)" fill="#ffffff" style="font-family: Verdana; font-size: 14.85; font-style: normal;" text-anchor="middle" x="399.5" y="218.10254037844385">6</text><polygon clip-path="url(#border_clip)" fill="black" fill-rule="evenodd" points="400.5,222.15254037844386 260.5,410.5 270.5,410.50000000000006 270.5000000000001,390.5 250.50000000000009,390.49999999999994 250.5,410.5 260.5,410.5" stroke-width="0" /><text clip-path="url(#border_clip)" fill="#ffffff" style="font-family: Verdana; font-size: 14.85; font-style: normal;" text-anchor="middle" x="259.5" y="406.45">7</text><polygon clip-path="url(#border_clip)" fill="black" fill-rule="evenodd" points="260.5,410.5 230.49999999999997,410.5 240.5,410.50000000000006 240.50000000000009,390.5 220.50000000000006,390.4999999999999 220.49999999999997,410.49999999999994 230.49999999999997,410.5" stroke-width="0" /><text clip-path="url(#border_clip)" fill="#ffffff" style="font-family: Verdana; font-size: 14.85; font-style: normal;" text-anchor="middle" x="229.49999999999997" y="406.45">8</text><polygon clip-path="url(#border_clip)" fill="black" fill-rule="evenodd" points="230.49999999999997,410.5 320.5,285.5 330.5,285.50000000000006 330.5000000000001,265.50000000000006 310.50000000000006,265.49999999999994 310.49999999999994,285.49999999999994 320.5,285.5" stroke-width="0" /><text clip-path="url(#border_clip)" fill="#ffffff" style="font-family: Verdana; font-size: 14.85; font-style: normal;" text-anchor="middle" x="319.5" y="281.45">9</text><polyline clip-path="url(#border_clip)" fill="none" points="100.5,400.5 100.5,400.5 100.5,250.5 125.5,250.5 125.5,175.5 175.5,175.5 175.5,350.5 200.5,350.5 200.5,100.5 350.5,100.5 350.5,175.5 400.5,175.5 400.5,275.5 300.5,275.5 300.5,400.5 100.5,400.5" stroke="black" stroke-linecap="round" stroke-width="0" /><polyline clip-path="url(#border_clip)" fill="none" points="325.5,130.55 328.0,129.88012701892222 329.8301270189222,128.05 330.5,125.55000000000001 329.8301270189222,123.05000000000001 328.0,121.21987298107783 325.5,120.55000000000001 323.0,121.21987298107783 321.1698729810778,123.05000000000003 320.5,125.55000000000003 321.1698729810778,128.05 323.0,129.88012701892222 325.5,130.55000000000004" stroke="#ffffff" stroke-linecap="round" stroke-width="0" /><polyline clip-path="url(#border_clip)" fill="none" points="225.5,130.55 228.0,129.88012701892222 229.83012701892218,128.05 230.5,125.55000000000001 229.8301270189222,123.05000000000001 228.0,121.21987298107783 225.5,120.55000000000001 223.0,121.21987298107783 221.16987298107782,123.05000000000001 220.5,125.55000000000001 221.1698729810778,128.05 223.0,129.88012701892222 225.5,130.55" stroke="#ffffff" stroke-linecap="round" stroke-width="0" /><polyline clip-path="url(#border_clip)" fill="none" points="275.5,217.15254037844386 278.0,216.48266739736607 279.8301270189222,214.6525403784439 280.5,212.1525403784439 279.8301270189222,209.6525403784439 278.0,207.82241335952168 275.5,207.15254037844386 273.0,207.82241335952168 271.16987298107784,209.65254037844386 270.5,212.15254037844386 271.1698729810778,214.65254037844386 273.0,216.48266739736607 275.5,217.15254037844386" stroke="#ffffff" stroke-linecap="round" stroke-width="0" /><polyline clip-path="url(#border_clip)" fill="none" points="225.5,110.55000000000001 235.5,110.55000000000004 235.50000000000009,90.55000000000001 215.50000000000006,90.54999999999995 215.5,110.54999999999998 225.5,110.55000000000001" stroke="#ffffff" stroke-linecap="round" stroke-width="0" /><polyline clip-path="url(#border_clip)" fill="none" points="325.5,110.55000000000001 335.5,110.55000000000004 335.5000000000001,90.55000000000001 315.50000000000006,90.54999999999993 315.5,110.54999999999995 325.5,110.54999999999998" stroke="#ffffff" stroke-linecap="round" stroke-width="0" /><polyline clip-path="url(#border_clip)" fill="none" points="200.5,157.20063509461102 210.5,157.20063509461104 210.50000000000009,137.20063509461102 190.50000000000006,137.20063509461096 190.5,157.20063509461096 200.5,157.20063509461102" stroke="#ffffff" stroke-linecap="round" stroke-width="0" /><polyline clip-path="url(#border_clip)" fill="none" points="350.5,157.20063509461102 360.5,157.20063509461104 360.5000000000001,137.20063509461102 340.5000000000001,137.20063509461096 340.5,157.20063509461096 350.5,157.20063509461102" stroke="#ffffff" stroke-linecap="round" stroke-width="0" /><polyline clip-path="url(#border_clip)" fill="none" points="200.5,222.15254037844386 210.5,222.15254037844392 210.50000000000009,202.15254037844392 190.50000000000006,202.1525403784438 190.5,222.15254037844383 200.5,222.1525403784439" stroke="#ffffff" stroke-linecap="round" stroke-width="0" /><polyline clip-path="url(#border_clip)" fill="none" points="400.5,222.15254037844386 410.5,222.15254037844392 410.5000000000001,202.15254037844392 390.50000000000006,202.1525403784438 390.5,222.15254037844383 400.5,222.15254037844386" stroke="#ffffff" stroke-linecap="round" stroke-width="0" /><polyline clip-path="url(#border_clip)" fill="none" points="260.5,410.5 270.5,410.50000000000006 270.5000000000001,390.5 250.50000000000009,390.49999999999994 250.5,410.5 260.5,410.5" stroke="#ffffff" stroke-linecap="round" stroke-width="0" /><polyline clip-path="url(#border_clip)" fill="none" points="230.49999999999997,410.5 240.5,410.50000000000006 240.50000000000009,390.5 220.50000000000006,390.4999999999999 220.49999999999997,410.49999999999994 230.49999999999997,410.5" stroke="#ffffff" stroke-linecap="round" stroke-width="0" /><polyline clip-path="url(#border_clip)" fill="none" points="320.5,285.5 330.5,285.50000000000006 330.5000000000001,265.50000000000006 310.50000000000006,265.49999999999994 310.49999999999994,285.49999999999994 320.5,285.5" stroke="#ffffff" stroke-linecap="round" stroke-width="0" /></svg>