<?xml version="1.0" encoding="utf-8" ?>
<svg baseProfile="full" height="500px" version="1.1" width="500px" xmlns="http://www.w3.org/2000/svg" xmlns:ev="http://www.w3.org/2001/xml-events" xmlns:xlink="http://www.w3.org/1999/xlink"><defs><clipPath id="border_clip"><rect height="500" width="500" x="0" y="0" /></clipPath></defs><polygon clip-path="url(#border_clip)" fill="#87ceeb" fill-rule="evenodd" points="250.5,250.5 125.5,350.5 125.5,350.5 125.5,150.5 375.5,150.5 375.5,350.5 125.5,350.5" stroke-width="0" /><polygon clip-path="url(#border_clip)" fill="#0000ff" fill-rule="evenodd" points="125.5,350.5 300.5,180.55 303.0,179.8801270189222 304.8301270189222,178.05 305.5,175.55 304.8301270189222,173.05 303.0,171.2198729810778 300.5,170.55 298.0,171.2198729810778 296.1698729810778,173.05 295.5,175.55 296.1698729810778,178.05 298.0,179.8801270189222 300.5,180.55" stroke-width="0" /><text clip-path="url(#border_clip)" fill="#ffffff" style="font-family: Verdana; font-size: 14.85; font-style: normal;" text-anchor="middle" x="299.5" y="176.5" /><polygon clip-path="url(#border_clip)" fill="#0000ff" fill-rule="evenodd" points="300.5,180.55 200.5,180.55 203.0,179.8801270189222 204.8301270189222,178.05 205.5,175.55 204.8301270189222,173.05 203.0,171.2198729810778 200.5,170.54999999999998 198.0,171.2198729810778 196.16987298107782,173.04999999999998 195.5,175.54999999999998 196.16987298107782,178.04999999999998 198.0,179.88012701892217 200.5,180.55" stroke-width="0" /><text clip-path="url(#border_clip)" fill="#ffffff" style="font-family: Verdana; font-size: 14.85; font-style: normal;" text-anchor="middle" x="199.5" y="176.5" /><polygon clip-path="url(#border_clip)" fill="#008000" fill-rule="evenodd" points="200.5,180.55 250.5,267.15254037844386 253.0,266.4826673973661 254.8301270189222,264.65254037844386 255.5,262.15254037844386 254.8301270189222,259.65254037844386 253.00000000000003,257.82241335952165 250.50000000000003,257.15254037844386 248.00000000000003,257.82241335952165 246.16987298107782,259.65254037844386 245.5,262.15254037844386 246.16987298107782,264.65254037844386 248.0,266.482667397366 250.5,267.15254037844386" stroke-width="0" /><text clip-path="url(#border_clip)" fill="#ffffff" style="font-family: Verdana; font-size: 14.85; font-style: normal;" text-anchor="middle" x="249.5" y="263.10254037844385" /><polygon clip-path="url(#border_clip)" fill="black" fill-rule="evenodd" points="250.5,267.15254037844386 200.5,160.55 210.5,160.55 210.50000000000006,140.55 190.50000000000006,140.54999999999995 190.5,160.54999999999995 200.5,160.54999999999998" stroke-width="0" /><text clip-path="url(#border_clip)" fill="#ffffff" style="font-family: Verdana; font-size: 14.85; font-style: normal;" text-anchor="middle" x="199.5" y="156.5">1</text><polygon clip-path="url(#border_clip)" fill="black" fill-rule="evenodd" points="200.5,160.54999999999998 300.5,160.55 310.5,160.55 310.50000000000006,140.55 290.50000000000006,140.54999999999995 290.5,160.54999999999995 300.5,160.55" stroke-width="0" /><text clip-path="url(#border_clip)" fill="#ffffff" style="font-family: Verdana; font-size: 14.85; font-style: normal;" text-anchor="middle" x="299.5" y="156.5">2</text><polygon clip-path="url(#border_clip)" fill="black" fill-rule="evenodd" points="300.5,160.55 125.5,207.20063509461096 135.5,207.200635094611 135.50000000000009,187.20063509461096 115.50000000000006,187.2006350946109 115.49999999999997,207.2006350946109 125.49999999999999,207.20063509461096" stroke-width="0" /><text clip-path="url(#border_clip)" fill="#ffffff" style="font-family: Verdana; font-size: 14.85; font-style: normal;" text-anchor="middle" x="124.5" y="203.15063509461095">3</text><polygon clip-path="url(#border_clip)" fill="black" fill-rule="evenodd" points="125.49999999999999,207.20063509461096 375.5,207.20063509461096 385.5,207.200635094611 385.5000000000001,187.20063509461096 365.50000000000006,187.2006350946109 365.5,207.2006350946109 375.5,207.20063509461096" stroke-width="0" /><text clip-path="url(#border_clip)" fill="#ffffff" style="font-family: Verdana; font-size: 14.85; font-style: normal;" text-anchor="middle" x="374.5" y="203.15063509461095">4</text><polygon clip-path="url(#border_clip)" fill="black" fill-rule="evenodd" points="375.5,207.20063509461096 125.5,272.15254037844386 135.5,272.1525403784439 135.5000000000001,252.1525403784439 115.50000000000009,252.1525403784438 115.5,272.1525403784438 125.50000000000001,272.15254037844386" stroke-width="0" /><text clip-path="url(#border_clip)" fill="#ffffff" style="font-family: Verdana; font-size: 14.85; font-style: normal;" text-anchor="middle" x="124.5" y="268.10254037844385">5</text><polygon clip-path="url(#border_clip)" fill="black" fill-rule="evenodd" points="125.50000000000001,272.15254037844386 375.5,272.15254037844386 385.5,272.1525403784439 385.5000000000001,252.1525403784439 365.50000000000006,252.15254037844377 365.5,272.1525403784438 375.5,272.15254037844386" stroke-width="0" /><text clip-path="url(#border_clip)" fill="#ffffff" style="font-family: Verdana; font-size: 14.85; font-style: normal;" text-anchor="middle" x="374.5" y="268.10254037844385">6</text><polygon clip-path="url(#border_clip)" fill="black" fill-rule="evenodd" points="375.5,272.15254037844386 235.5,360.5 245.50000000000003,360.50000000000006 245.5000000000001,340.5 225.50000000000009,340.49999999999994 225.5,360.49999999999994 235.5,360.5" stroke-width="0" /><text clip-path="url(#border_clip)" fill="#ffffff" style="font-family: Verdana; font-size: 14.85; font-style: normal;" text-anchor="middle" x="234.5" y="356.45">7</text><polygon clip-path="url(#border_clip)" fill="black" fill-rule="evenodd" points="235.5,360.5 265.5,360.5 275.5,360.50000000000006 275.5000000000001,340.5 255.50000000000009,340.49999999999994 255.49999999999997,360.49999999999994 265.5,360.5" stroke-width="0" /><text clip-path="url(#border_clip)" fill="#ffffff" style="font-family: Verdana; font-size: 14.85; font-style: normal;" text-anchor="middle" x="264.5" y="356.45">8</text><polygon clip-path="url(#border_clip)" fill="black" fill-rule="evenodd" points="265.5,360.5 205.5,360.5 215.5,360.50000000000006 215.5000000000001,340.50000000000006 195.50000000000009,340.49999999999994 195.49999999999997,360.49999999999994 205.5,360.5" stroke-width="0" /><text clip-path="url(#border_clip)" fill="#ffffff" style="font-family: Verdana; font-size: 14.85; font-style: normal;" text-anchor="middle" x="204.5" y="356.45">9</text><polygon clip-path="url(#border_clip)" fill="black" fill-rule="evenodd" points="205.5,360.5 295.5,360.5 305.5,360.50000000000006 305.5000000000001,340.50000000000006 285.5000000000001,340.49999999999994 285.5,360.49999999999994 295.5,360.5" stroke-width="0" /><text clip-path="url(#border_clip)" fill="#ffffff" style="font-family: Verdana; font-size: 14.85; font-style: normal;" text-anchor="middle" x="294.5" y="356.45">10</text><polyline clip-path="url(#border_clip)" fill="none" points="125.5,350.5 125.5,350.5 125.5,150.5 375.5,150.5 375.5,350.5 125.5,350.5" stroke="black" stroke-linecap="round" stroke-width="0" /><polyline clip-path="url(#border_clip)" fill="none" points="300.5,180.55 303.0,179.8801270189222 304.8301270189222,178.05 305.5,175.55 304.8301270189222,173.05 303.0,171.2198729810778 300.5,170.55 298.0,171.2198729810778 296.1698729810778,173.05 295.5,175.55 296.1698729810778,178.05 298.0,179.8801270189222 300.5,180.55" stroke="#ffffff" stroke-linecap="round" stroke-width="0" /><polyline clip-path="url(#border_clip)" fill="none" points="200.5,180.55 203.0,179.8801270189222 204.8301270189222,178.05 205.5,175.55 204.8301270189222,173.05 203.0,171.2198729810778 200.5,170.54999999999998 198.0,171.2198729810778 196.16987298107782,173.04999999999998 195.5,175.54999999999998 196.16987298107782,178.04999999999998 198.0,179.88012701892217 200.5,180.55" stroke="#ffffff" stroke-linecap="round" stroke-width="0" /><polyline clip-path="url(#border_clip)" fill="none" points="250.5,267.15254037844386 253.0,266.4826673973661 254.8301270189222,264.65254037844386 255.5,262.15254037844386 254.8301270189222,259.65254037844386 253.00000000000003,257.82241335952165 250.50000000000003,257.15254037844386 248.00000000000003,257.82241335952165 246.16987298107782,259.65254037844386 245.5,262.15254037844386 246.16987298107782,264.65254037844386 248.0,266.482667397366 250.5,267.15254037844386" stroke="#ffffff" stroke-linecap="round" stroke-width="0" /><polyline clip-path="url(#border_clip)" fill="none" points="200.5,160.55 210.5,160.55 210.50000000000006,140.55 190.50000000000006,140.54999999999995 190.5,160.54999999999995 200.5,160.54999999999998" stroke="#ffffff" stroke-linecap="round" stroke-width="0" /><polyline clip-path="url(#border_clip)" fill="none" points="300.5,160.55 310.5,160.55 310.50000000000006,140.55 290.50000000000006,140.54999999999995 290.5,160.54999999999995 300.5,160.55" stroke="#ffffff" stroke-linecap="round" stroke-width="0" /><polyline clip-path="url(#border_clip)" fill="none" points="125.5,207.20063509461096 135.5,207.200635094611 135.50000000000009,187.20063509461096 115.50000000000006,187.2006350946109 115.49999999999997,207.2006350946109 125.49999999999999,207.20063509461096" stroke="#ffffff" stroke-linecap="round" stroke-width="0" /><polyline clip-path="url(#border_clip)" fill="none" points="375.5,207.20063509461096 385.5,207.200635094611 385.5000000000001,187.20063509461096 365.50000000000006,187.2006350946109 365.5,207.2006350946109 375.5,207.20063509461096" stroke="#ffffff" stroke-linecap="round" stroke-width="0" /><polyline clip-path="url(#border_clip)" fill="none" points="125.5,272.15254037844386 135.5,272.1525403784439 135.5000000000001,252.1525403784439 115.50000000000009,252.1525403784438 115.5,272.1525403784438 125.50000000000001,272.15254037844386" stroke="#ffffff" stroke-linecap="round" stroke-width="0" /><polyline clip-path="url(#border_clip)" fill="none" points="375.5,272.15254037844386 385.5,272.1525403784439 385.5000000000001,252.1525403784439 365.50000000000006,252.15254037844377 365.5,272.1525403784438 375.5,272.15254037844386" stroke="#ffffff" stroke-linecap="round" stroke-width="0" /><polyline clip-path="url(#border_clip)" fill="none" points="235.5,360.5 245.50000000000003,360.50000000000006 245.5000000000001,340.5 225.50000000000009,340.49999999999994 225.5,360.49999999999994 235.5,360.5" stroke="#ffffff" stroke-linecap="round" stroke-width="0" /><polyline clip-path="url(#border_clip)" fill="none" points="265.5,360.5 275.5,360.50000000000006 275.5000000000001,340.5 255.50000000000009,340.49999999999994 255.49999999999997,360.49999999999994 265.5,360.5" stroke="#ffffff" stroke-linecap="round" stroke-width="0" /><polyline clip-path="url(#border_clip)" fill="none" points="205.5,360.5 215.5,360.50000000000006 215.5000000000001,340.50000000000006 195.50000000000009,340.49999999999994 195.49999999999997,360.49999999999994 205.5,360.5" stroke="#ffffff" stroke-linecap="round" stroke-width="0" /><polyline clip-path="url(#border_clip)" fill="none" points="295.5,360.5 305.5,360.50000000000006 305.5000000000001,340.50000000000006 285.5000000000001,340.49999999999994 285.5,360.49999999999994 295.5,360.5" stroke="#ffffff" stroke-linecap="round" stroke-width="0" /></svg>