<?xml version="1.0" encoding="utf-8" ?>
<svg baseProfile="full" height="500px" version="1.1" width="500px" xmlns="http://www.w3.org/2000/svg" xmlns:ev="http://www.w3.org/2001/xml-events" xmlns:xlink="http://www.w3.org/1999/xlink"><defs><clipPath id="border_clip"><rect height="500" width="500" x="0" y="0" /></clipPath></defs><polygon clip-path="url(#border_clip)" fill="#87ceeb" fill-rule="evenodd" points="250.5,250.5 125.5,350.5 125.5,350.5 125.5,150.5 375.5,150.5 375.5,350.5 125.5,350.5" stroke-width="0" /><polygon clip-path="url(#border_clip)" fill="#0000ff" fill-rule="evenodd" points="125.5,350.5 300.5,330.45 303.0,329.7801270189222 304.8301270189222,327.95 305.5,325.45 304.8301270189222,322.95 303.0,321.11987298107783 300.5,320.45 298.0,321.11987298107783 296.1698729810778,322.95 295.5,325.45 296.1698729810778,327.95 298.0,329.7801270189222 300.5,330.45000000000005" stroke-width="0" /><text clip-path="url(#border_clip)" fill="#ffffff" style="font-family: Verdana; font-size: 14.85; font-style: normal;" text-anchor="middle" x="299.5" y="326.4" /><polygon clip-path="url(#border_clip)" fill="#0000ff" fill-rule="evenodd" points="300.5,330.45000000000005 200.5,330.45 203.0,329.7801270189222 204.8301270189222,327.95 205.5,325.45 204.8301270189222,322.95 203.0,321.11987298107783 200.5,320.45 198.0,321.1198729810778 196.16987298107782,322.95 195.5,325.45 196.16987298107782,327.95 198.0,329.7801270189222 200.5,330.45" stroke-width="0" /><text clip-path="url(#border_clip)" fill="#ffffff" style="font-family: Verdana; font-size: 14.85; font-style: normal;" text-anchor="middle" x="199.5" y="326.4" /><polygon clip-path="url(#border_clip)" fill="#008000" fill-rule="evenodd" points="200.5,330.45 250.5,243.84745962155614 253.0,243.17758664047835 254.8301270189222,241.34745962155614 255.5,238.84745962155614 254.8301270189222,236.34745962155614 253.00000000000003,234.51733260263396 250.50000000000003,233.84745962155614 248.00000000000003,234.51733260263393 246.16987298107782,236.34745962155614 245.5,238.84745962155614 246.16987298107782,241.34745962155614 248.0,243.17758664047832 250.5,243.84745962155614" stroke-width="0" /><text clip-path="url(#border_clip)" fill="#ffffff" style="font-family: Verdana; font-size: 14.85; font-style: normal;" text-anchor="middle" x="249.5" y="239.79745962155613" /><polygon clip-path="url(#border_clip)" fill="black" fill-rule="evenodd" points="250.5,243.84745962155614 200.5,360.45 210.5,360.45000000000005 210.50000000000006,340.45000000000005 190.50000000000006,340.44999999999993 190.5,360.44999999999993 200.5,360.45" stroke-width="0" /><text clip-path="url(#border_clip)" fill="#ffffff" style="font-family: Verdana; font-size: 14.85; font-style: normal;" text-anchor="middle" x="199.5" y="356.4">1</text><polygon clip-path="url(#border_clip)" fill="black" fill-rule="evenodd" points="200.5,360.45 300.5,360.45 310.5,360.45000000000005 310.50000000000006,340.45000000000005 290.50000000000006,340.44999999999993 290.5,360.44999999999993 300.5,360.45" stroke-width="0" /><text clip-path="url(#border_clip)" fill="#ffffff" style="font-family: Verdana; font-size: 14.85; font-style: normal;" text-anchor="middle" x="299.5" y="356.4">2</text><polygon clip-path="url(#border_clip)" fill="black" fill-rule="evenodd" points="300.5,360.45 125.5,313.79936490538904 135.5,313.7993649053891 135.50000000000009,293.7993649053891 115.50000000000006,293.799364905389 115.49999999999997,313.799364905389 125.49999999999999,313.79936490538904" stroke-width="0" /><text clip-path="url(#border_clip)" fill="#ffffff" style="font-family: Verdana; font-size: 14.85; font-style: normal;" text-anchor="middle" x="124.5" y="309.74936490538903">3</text><polygon clip-path="url(#border_clip)" fill="black" fill-rule="evenodd" points="125.49999999999999,313.79936490538904 375.5,313.79936490538904 385.5,313.7993649053891 385.5000000000001,293.7993649053891 365.50000000000006,293.799364905389 365.5,313.799364905389 375.5,313.79936490538904" stroke-width="0" /><text clip-path="url(#border_clip)" fill="#ffffff" style="font-family: Verdana; font-size: 14.85; font-style: normal;" text-anchor="middle" x="374.5" y="309.74936490538903">4</text><polygon clip-path="url(#border_clip)" fill="black" fill-rule="evenodd" points="375.5,313.79936490538904 125.5,248.84745962155614 135.5,248.8474596215562 135.5000000000001,228.84745962155617 115.50000000000009,228.84745962155608 115.5,248.8474596215561 125.50000000000001,248.84745962155614" stroke-width="0" /><text clip-path="url(#border_clip)" fill="#ffffff" style="font-family: Verdana; font-size: 14.85; font-style: normal;" text-anchor="middle" x="124.5" y="244.79745962155613">5</text><polygon clip-path="url(#border_clip)" fill="black" fill-rule="evenodd" points="125.50000000000001,248.84745962155614 375.5,248.84745962155614 385.5,248.8474596215562 385.5000000000001,228.84745962155617 365.50000000000006,228.84745962155608 365.5,248.84745962155608 375.5,248.84745962155614" stroke-width="0" /><text clip-path="url(#border_clip)" fill="#ffffff" style="font-family: Verdana; font-size: 14.85; font-style: normal;" text-anchor="middle" x="374.5" y="244.79745962155613">6</text><polygon clip-path="url(#border_clip)" fill="black" fill-rule="evenodd" points="375.5,248.84745962155614 235.5,160.5 245.50000000000003,160.50000000000006 245.5000000000001,140.50000000000003 225.50000000000009,140.49999999999994 225.5,160.49999999999994 235.5,160.5" stroke-width="0" /><text clip-path="url(#border_clip)" fill="#ffffff" style="font-family: Verdana; font-size: 14.85; font-style: normal;" text-anchor="middle" x="234.5" y="156.45">7</text><polygon clip-path="url(#border_clip)" fill="black" fill-rule="evenodd" points="235.5,160.5 265.5,160.5 275.5,160.50000000000006 275.5000000000001,140.50000000000003 255.50000000000009,140.49999999999994 255.49999999999997,160.49999999999994 265.5,160.5" stroke-width="0" /><text clip-path="url(#border_clip)" fill="#ffffff" style="font-family: Verdana; font-size: 14.85; font-style: normal;" text-anchor="middle" x="264.5" y="156.45">8</text><polygon clip-path="url(#border_clip)" fill="black" fill-rule="evenodd" points="265.5,160.5 205.5,160.5 215.5,160.50000000000006 215.5000000000001,140.50000000000006 195.50000000000009,140.49999999999994 195.49999999999997,160.49999999999994 205.5,160.5" stroke-width="0" /><text clip-path="url(#border_clip)" fill="#ffffff" style="font-family: Verdana; font-size: 14.85; font-style: normal;" text-anchor="middle" x="204.5" y="156.45">9</text><polygon clip-path="url(#border_clip)" fill="black" fill-rule="evenodd" points="205.5,160.5 295.5,160.5 305.5,160.50000000000006 305.5000000000001,140.50000000000006 285.5000000000001,140.49999999999994 285.5,160.49999999999994 295.5,160.5" stroke-width="0" /><text clip-path="url(#border_clip)" fill="#ffffff" style="font-family: Verdana; font-size: 14.85; font-style: normal;" text-anchor="middle" x="294.5" y="156.45">10</text><polyline clip-path="url(#border_clip)" fill="none" points="125.5,350.5 125.5,350.5 125.5,150.5 375.5,150.5 375.5,350.5 125.5,350.5" stroke="black" stroke-linecap="round" stroke-width="0" /><polyline clip-path="url(#border_clip)" fill="none" points="300.5,330.45 303.0,329.7801270189222 304.8301270189222,327.95 305.5,325.45 304.8301270189222,322.95 303.0,321.11987298107783 300.5,320.45 298.0,321.11987298107783 296.1698729810778,322.95 295.5,325.45 296.1698729810778,327.95 298.0,329.7801270189222 300.5,330.45000000000005" stroke="#ffffff" stroke-linecap="round" stroke-width="0" /><polyline clip-path="url(#border_clip)" fill="none" points="200.5,330.45 203.0,329.7801270189222 204.8301270189222,327.95 205.5,325.45 204.8301270189222,322.95 203.0,321.11987298107783 200.5,320.45 198.0,321.1198729810778 196.16987298107782,322.95 195.5,325.45 196.16987298107782,327.95 198.0,329.7801270189222 200.5,330.45" stroke="#ffffff" stroke-linecap="round" stroke-width="0" /><polyline clip-path="url(#border_clip)" fill="none" points="250.5,243.84745962155614 253.0,243.17758664047835 254.8301270189222,241.34745962155614 255.5,238.84745962155614 254.8301270189222,236.34745962155614 253.00000000000003,234.51733260263396 250.50000000000003,233.84745962155614 248.00000000000003,234.51733260263393 246.16987298107782,236.34745962155614 245.5,238.84745962155614 246.16987298107782,241.34745962155614 248.0,243.17758664047832 250.5,243.84745962155614" stroke="#ffffff" stroke-linecap="round" stroke-width="0" /><polyline clip-path="url(#border_clip)" fill="none" points="200.5,360.45 210.5,360.45000000000005 210.50000000000006,340.45000000000005 190.50000000000006,340.44999999999993 190.5,360.44999999999993 200.5,360.45" stroke="#ffffff" stroke-linecap="round" stroke-width="0" /><polyline clip-path="url(#border_clip)" fill="none" points="300.5,360.45 310.5,360.45000000000005 310.50000000000006,340.45000000000005 290.50000000000006,340.44999999999993 290.5,360.44999999999993 300.5,360.45" stroke="#ffffff" stroke-linecap="round" stroke-width="0" /><polyline clip-path="url(#border_clip)" fill="none" points="125.5,313.79936490538904 135.5,313.7993649053891 135.50000000000009,293.7993649053891 115.50000000000006,293.799364905389 115.49999999999997,313.799364905389 125.49999999999999,313.79936490538904" stroke="#ffffff" stroke-linecap="round" stroke-width="0" /><polyline clip-path="url(#border_clip)" fill="none" points="375.5,313.79936490538904 385.5,313.7993649053891 385.5000000000001,293.7993649053891 365.50000000000006,293.799364905389 365.5,313.799364905389 375.5,313.79936490538904" stroke="#ffffff" stroke-linecap="round" stroke-width="0" /><polyline clip-path="url(#border_clip)" fill="none" points="125.5,248.84745962155614 135.5,248.8474596215562 135.5000000000001,228.84745962155617 115.50000000000009,228.84745962155608 115.5,248.8474596215561 125.50000000000001,248.84745962155614" stroke="#ffffff" stroke-linecap="round" stroke-width="0" /><polyline clip-path="url(#border_clip)" fill="none" points="375.5,248.84745962155614 385.5,248.8474596215562 385.5000000000001,228.84745962155617 365.50000000000006,228.84745962155608 365.5,248.84745962155608 375.5,248.84745962155614" stroke="#ffffff" stroke-linecap="round" stroke-width="0" /><polyline clip-path="url(#border_clip)" fill="none" points="235.5,160.5 245.50000000000003,160.50000000000006 245.5000000000001,140.50000000000003 225.50000000000009,140.49999999999994 225.5,160.49999999999994 235.5,160.5" stroke="#ffffff" stroke-linecap="round" stroke-width="0" /><polyline clip-path="url(#border_clip)" fill="none" points="265.5,160.5 275.5,160.50000000000006 275.5000000000001,140.50000000000003 255.50000000000009,140.49999999999994 255.49999999999997,160.49999999999994 265.5,160.5" stroke="#ffffff" stroke-linecap="round" stroke-width="0" /><polyline clip-path="url(#border_clip)" fill="none" points="205.5,160.5 215.5,160.50000000000006 215.5000000000001,140.50000000000006 195.50000000000009,140.49999999999994 195.49999999999997,160.49999999999994 205.5,160.5" stroke="#ffffff" stroke-linecap="round" stroke-width="0" /><polyline clip-path="url(#border_clip)" fill="none" points="295.5,160.5 305.5,160.50000000000006 305.5000000000001,140.50000000000006 285.5000000000001,140.49999999999994 285.5,160.49999999999994 295.5,160.5" stroke="#ffffff" stroke-linecap="round" stroke-width="0" /></svg>