<?xml version="1.0" encoding="utf-8" ?>
<svg baseProfile="full" height="500px" version="1.1" width="500px" xmlns="http://www.w3.org/2000/svg" xmlns:ev="http://www.w3.org/2001/xml-events" xmlns:xlink="http://www.w3.org/1999/xlink"><defs><clipPath id="border_clip"><rect height="500" width="500" x="0" y="0" /></clipPath></defs><polygon clip-path="url(#border_clip)" fill="#87ceeb" fill-rule="evenodd" points="250.5,250.5 125.5,350.5 125.5,350.5 125.5,150.5 375.5,150.5 375.5,350.5 125.5,350.5" stroke-width="0" /><polygon clip-path="url(#border_clip)" fill="#0000ff" fill-rule="evenodd" points="125.5,350.5 150.55,205.5 153.05,204.83012701892218 154.8801270189222,203.0 155.55,200.5 154.8801270189222,198.0 153.05,196.16987298107782 150.55,195.5 148.05,196.16987298107782 146.2198729810778,198.0 145.55,200.5 146.2198729810778,203.0 148.05,204.8301270189222 150.55,205.5" stroke-width="0" /><text clip-path="url(#border_clip)" fill="#ffffff" style="font-family: Verdana; font-size: 14.85; font-style: normal;" text-anchor="middle" x="149.55" y="201.45" /><polygon clip-path="url(#border_clip)" fill="#0000ff" fill-rule="evenodd" points="150.55,205.5 150.55,305.5 153.05,304.8301270189222 154.8801270189222,303.0 155.55,300.5 154.88012701892222,298.0 153.05,296.1698729810778 150.55,295.5 148.05,296.1698729810778 146.2198729810778,298.0 145.55,300.5 146.2198729810778,303.0 148.04999999999998,304.8301270189222 150.54999999999998,305.5" stroke-width="0" /><text clip-path="url(#border_clip)" fill="#ffffff" style="font-family: Verdana; font-size: 14.85; font-style: normal;" text-anchor="middle" x="149.55" y="301.45" /><polygon clip-path="url(#border_clip)" fill="#008000" fill-rule="evenodd" points="150.54999999999998,305.5 237.15254037844386,255.5 239.65254037844386,254.8301270189222 241.48266739736604,253.0 242.15254037844386,250.5 241.48266739736607,248.0 239.6525403784439,246.16987298107782 237.1525403784439,245.5 234.65254037844386,246.1698729810778 232.82241335952168,247.99999999999997 232.15254037844386,250.49999999999997 232.82241335952165,252.99999999999997 234.65254037844383,254.83012701892218 237.15254037844383,255.5" stroke-width="0" /><text clip-path="url(#border_clip)" fill="#ffffff" style="font-family: Verdana; font-size: 14.85; font-style: normal;" text-anchor="middle" x="236.15254037844386" y="251.45" /><polygon clip-path="url(#border_clip)" fill="black" fill-rule="evenodd" points="237.15254037844383,255.5 125.55,310.5 135.55,310.5 135.55000000000007,290.5 115.55000000000007,290.49999999999994 115.55000000000001,310.5 125.55000000000003,310.5" stroke-width="0" /><text clip-path="url(#border_clip)" fill="#ffffff" style="font-family: Verdana; font-size: 14.85; font-style: normal;" text-anchor="middle" x="124.55" y="306.45">1</text><polygon clip-path="url(#border_clip)" fill="black" fill-rule="evenodd" points="125.55000000000003,310.5 125.55,210.5 135.55,210.50000000000003 135.55000000000007,190.5 115.55000000000007,190.49999999999994 115.54999999999998,210.49999999999994 125.55,210.5" stroke-width="0" /><text clip-path="url(#border_clip)" fill="#ffffff" style="font-family: Verdana; font-size: 14.85; font-style: normal;" text-anchor="middle" x="124.55" y="206.45">2</text><polygon clip-path="url(#border_clip)" fill="black" fill-rule="evenodd" points="125.55,210.5 172.20063509461096,360.5 182.20063509461096,360.50000000000006 182.20063509461104,340.5 162.20063509461102,340.49999999999994 162.20063509461096,360.5 172.20063509461096,360.5" stroke-width="0" /><text clip-path="url(#border_clip)" fill="#ffffff" style="font-family: Verdana; font-size: 14.85; font-style: normal;" text-anchor="middle" x="171.20063509461096" y="356.45">3</text><polygon clip-path="url(#border_clip)" fill="black" fill-rule="evenodd" points="172.20063509461096,360.5 172.20063509461096,160.5 182.20063509461096,160.50000000000006 182.20063509461107,140.50000000000003 162.20063509461104,140.49999999999994 162.20063509461096,160.49999999999994 172.20063509461096,160.5" stroke-width="0" /><text clip-path="url(#border_clip)" fill="#ffffff" style="font-family: Verdana; font-size: 14.85; font-style: normal;" text-anchor="middle" x="171.20063509461096" y="156.45">4</text><polygon clip-path="url(#border_clip)" fill="black" fill-rule="evenodd" points="172.20063509461096,160.5 237.15254037844386,360.5 247.15254037844386,360.50000000000006 247.15254037844394,340.5 227.15254037844392,340.49999999999994 227.15254037844383,360.49999999999994 237.15254037844386,360.5" stroke-width="0" /><text clip-path="url(#border_clip)" fill="#ffffff" style="font-family: Verdana; font-size: 14.85; font-style: normal;" text-anchor="middle" x="236.15254037844386" y="356.45">5</text><polygon clip-path="url(#border_clip)" fill="black" fill-rule="evenodd" points="237.15254037844386,360.5 237.15254037844386,160.5 247.15254037844386,160.50000000000006 247.15254037844394,140.50000000000003 227.15254037844394,140.49999999999994 227.15254037844383,160.49999999999994 237.15254037844386,160.5" stroke-width="0" /><text clip-path="url(#border_clip)" fill="#ffffff" style="font-family: Verdana; font-size: 14.85; font-style: normal;" text-anchor="middle" x="236.15254037844386" y="156.45">6</text><polygon clip-path="url(#border_clip)" fill="black" fill-rule="evenodd" points="237.15254037844386,160.5 375.5,275.5 385.5,275.50000000000006 385.5000000000001,255.50000000000003 365.50000000000006,255.49999999999994 365.5,275.49999999999994 375.5,275.5" stroke-width="0" /><text clip-path="url(#border_clip)" fill="#ffffff" style="font-family: Verdana; font-size: 14.85; font-style: normal;" text-anchor="middle" x="374.5" y="271.45">7</text><polygon clip-path="url(#border_clip)" fill="black" fill-rule="evenodd" points="375.5,275.5 375.5,245.5 385.5,245.50000000000006 385.5000000000001,225.50000000000003 365.50000000000006,225.49999999999994 365.5,245.49999999999994 375.5,245.5" stroke-width="0" /><text clip-path="url(#border_clip)" fill="#ffffff" style="font-family: Verdana; font-size: 14.85; font-style: normal;" text-anchor="middle" x="374.5" y="241.45">8</text><polygon clip-path="url(#border_clip)" fill="black" fill-rule="evenodd" points="375.5,245.5 375.5,305.5 385.5,305.50000000000006 385.5000000000001,285.50000000000006 365.5000000000001,285.49999999999994 365.5,305.49999999999994 375.5,305.5" stroke-width="0" /><text clip-path="url(#border_clip)" fill="#ffffff" style="font-family: Verdana; font-size: 14.85; font-style: normal;" text-anchor="middle" x="374.5" y="301.45">9</text><polygon clip-path="url(#border_clip)" fill="black" fill-rule="evenodd" points="375.5,305.5 375.5,215.5 385.5,215.50000000000006 385.5000000000001,195.50000000000003 365.5000000000001,195.49999999999991 365.5,215.49999999999994 375.5,215.5" stroke-width="0" /><text clip-path="url(#border_clip)" fill="#ffffff" style="font-family: Verdana; font-size: 14.85; font-style: normal;" text-anchor="middle" x="374.5" y="211.45">10</text><polyline clip-path="url(#border_clip)" fill="none" points="125.5,350.5 125.5,350.5 125.5,150.5 375.5,150.5 375.5,350.5 125.5,350.5" stroke="black" stroke-linecap="round" stroke-width="0" /><polyline clip-path="url(#border_clip)" fill="none" points="150.55,205.5 153.05,204.83012701892218 154.8801270189222,203.0 155.55,200.5 154.8801270189222,198.0 153.05,196.16987298107782 150.55,195.5 148.05,196.16987298107782 146.2198729810778,198.0 145.55,200.5 146.2198729810778,203.0 148.05,204.8301270189222 150.55,205.5" stroke="#ffffff" stroke-linecap="round" stroke-width="0" /><polyline clip-path="url(#border_clip)" fill="none" points="150.55,305.5 153.05,304.8301270189222 154.8801270189222,303.0 155.55,300.5 154.88012701892222,298.0 153.05,296.1698729810778 150.55,295.5 148.05,296.1698729810778 146.2198729810778,298.0 145.55,300.5 146.2198729810778,303.0 148.04999999999998,304.8301270189222 150.54999999999998,305.5" stroke="#ffffff" stroke-linecap="round" stroke-width="0" /><polyline clip-path="url(#border_clip)" fill="none" points="237.15254037844386,255.5 239.65254037844386,254.8301270189222 241.48266739736604,253.0 242.15254037844386,250.5 241.48266739736607,248.0 239.6525403784439,246.16987298107782 237.1525403784439,245.5 234.65254037844386,246.1698729810778 232.82241335952168,247.99999999999997 232.15254037844386,250.49999999999997 232.82241335952165,252.99999999999997 234.65254037844383,254.83012701892218 237.15254037844383,255.5" stroke="#ffffff" stroke-linecap="round" stroke-width="0" /><polyline clip-path="url(#border_clip)" fill="none" points="125.55,310.5 135.55,310.5 135.55000000000007,290.5 115.55000000000007,290.49999999999994 115.55000000000001,310.5 125.55000000000003,310.5" stroke="#ffffff" stroke-linecap="round" stroke-width="0" /><polyline clip-path="url(#border_clip)" fill="none" points="125.55,210.5 135.55,210.50000000000003 135.55000000000007,190.5 115.55000000000007,190.49999999999994 115.54999999999998,210.49999999999994 125.55,210.5" stroke="#ffffff" stroke-linecap="round" stroke-width="0" /><polyline clip-path="url(#border_clip)" fill="none" points="172.20063509461096,360.5 182.20063509461096,360.50000000000006 182.20063509461104,340.5 162.20063509461102,340.49999999999994 162.20063509461096,360.5 172.20063509461096,360.5" stroke="#ffffff" stroke-linecap="round" stroke-width="0" /><polyline clip-path="url(#border_clip)" fill="none" points="172.20063509461096,160.5 182.20063509461096,160.50000000000006 182.20063509461107,140.50000000000003 162.20063509461104,140.49999999999994 162.20063509461096,160.49999999999994 172.20063509461096,160.5" stroke="#ffffff" stroke-linecap="round" stroke-width="0" /><polyline clip-path="url(#border_clip)" fill="none" points="237.15254037844386,360.5 247.15254037844386,360.50000000000006 247.15254037844394,340.5 227.15254037844392,340.49999999999994 227.15254037844383,360.49999999999994 237.15254037844386,360.5" stroke="#ffffff" stroke-linecap="round" stroke-width="0" /><polyline clip-path="url(#border_clip)" fill="none" points="237.15254037844386,160.5 247.15254037844386,160.50000000000006 247.15254037844394,140.50000000000003 227.15254037844394,140.49999999999994 227.15254037844383,160.49999999999994 237.15254037844386,160.5" stroke="#ffffff" stroke-linecap="round" stroke-width="0" /><polyline clip-path="url(#border_clip)" fill="none" points="375.5,275.5 385.5,275.50000000000006 385.5000000000001,255.50000000000003 365.50000000000006,255.49999999999994 365.5,275.49999999999994 375.5,275.5" stroke="#ffffff" stroke-linecap="round" stroke-width="0" /><polyline clip-path="url(#border_clip)" fill="none" points="375.5,245.5 385.5,245.50000000000006 385.5000000000001,225.50000000000003 365.50000000000006,225.49999999999994 365.5,245.49999999999994 375.5,245.5" stroke="#ffffff" stroke-linecap="round" stroke-width="0" /><polyline clip-path="url(#border_clip)" fill="none" points="375.5,305.5 385.5,305.50000000000006 385.5000000000001,285.50000000000006 365.5000000000001,285.49999999999994 365.5,305.49999999999994 375.5,305.5" stroke="#ffffff" stroke-linecap="round" stroke-width="0" /><polyline clip-path="url(#border_clip)" fill="none" points="375.5,215.5 385.5,215.50000000000006 385.5000000000001,195.50000000000003 365.5000000000001,195.49999999999991 365.5,215.49999999999994 375.5,215.5" stroke="#ffffff" stroke-linecap="round" stroke-width="0" /></svg>